<mxfile host="www.draw.io" modified="2019-12-28T05:39:01.809Z" agent="Mozilla/5.0 (Windows NT 6.1; Win64; x64) AppleWebKit/537.36 (KHTML, like Gecko) Chrome/78.0.3904.108 Safari/537.36" etag="64Myr8viPy8MusDyKITk" version="12.4.7" type="github">
  <diagram name="Page-1" id="822b0af5-4adb-64df-f703-e8dfc1f81529">
    <mxGraphModel dx="1108" dy="400" grid="1" gridSize="10" guides="1" tooltips="1" connect="1" arrows="1" fold="1" page="1" pageScale="1" pageWidth="1100" pageHeight="850" background="#ffffff" math="0" shadow="0">
      <root>
        <mxCell id="0"/>
        <mxCell id="1" parent="0"/>
        <mxCell id="JhHzv592Icp3fgC0ysYY-1" style="edgeStyle=orthogonalEdgeStyle;rounded=0;orthogonalLoop=1;jettySize=auto;html=1;" edge="1" parent="1" source="JhHzv592Icp3fgC0ysYY-3" target="JhHzv592Icp3fgC0ysYY-13">
          <mxGeometry relative="1" as="geometry"/>
        </mxCell>
        <mxCell id="JhHzv592Icp3fgC0ysYY-2" value="&lt;b&gt;&lt;font style=&quot;font-size: 14px&quot;&gt;同步数据&lt;/font&gt;&lt;/b&gt;" style="text;html=1;align=center;verticalAlign=middle;resizable=0;points=[];labelBackgroundColor=#ffffff;" vertex="1" connectable="0" parent="JhHzv592Icp3fgC0ysYY-1">
          <mxGeometry x="0.0034" y="29" relative="1" as="geometry">
            <mxPoint x="-29" y="26" as="offset"/>
          </mxGeometry>
        </mxCell>
        <mxCell id="JhHzv592Icp3fgC0ysYY-3" value="" style="verticalLabelPosition=bottom;aspect=fixed;html=1;verticalAlign=top;strokeColor=none;align=center;outlineConnect=0;shape=mxgraph.citrix.desktop;" vertex="1" parent="1">
          <mxGeometry x="250" y="57.5" width="91.72" height="101" as="geometry"/>
        </mxCell>
        <mxCell id="JhHzv592Icp3fgC0ysYY-4" style="edgeStyle=orthogonalEdgeStyle;rounded=0;orthogonalLoop=1;jettySize=auto;html=1;" edge="1" parent="1" source="JhHzv592Icp3fgC0ysYY-6" target="JhHzv592Icp3fgC0ysYY-14">
          <mxGeometry relative="1" as="geometry"/>
        </mxCell>
        <mxCell id="JhHzv592Icp3fgC0ysYY-5" value="&lt;font style=&quot;font-size: 14px&quot;&gt;&lt;b&gt;同步数据&lt;/b&gt;&lt;/font&gt;" style="text;html=1;align=center;verticalAlign=middle;resizable=0;points=[];labelBackgroundColor=#ffffff;" vertex="1" connectable="0" parent="JhHzv592Icp3fgC0ysYY-4">
          <mxGeometry x="-0.2195" y="2" relative="1" as="geometry">
            <mxPoint as="offset"/>
          </mxGeometry>
        </mxCell>
        <mxCell id="JhHzv592Icp3fgC0ysYY-6" value="" style="verticalLabelPosition=bottom;aspect=fixed;html=1;verticalAlign=top;strokeColor=none;align=center;outlineConnect=0;shape=mxgraph.citrix.desktop;" vertex="1" parent="1">
          <mxGeometry x="260" y="271" width="89" height="98" as="geometry"/>
        </mxCell>
        <mxCell id="JhHzv592Icp3fgC0ysYY-7" style="edgeStyle=orthogonalEdgeStyle;rounded=0;orthogonalLoop=1;jettySize=auto;html=1;" edge="1" parent="1" source="JhHzv592Icp3fgC0ysYY-9" target="JhHzv592Icp3fgC0ysYY-3">
          <mxGeometry relative="1" as="geometry"/>
        </mxCell>
        <mxCell id="JhHzv592Icp3fgC0ysYY-8" value="&lt;font style=&quot;font-size: 14px&quot;&gt;设备控制&lt;/font&gt;" style="text;html=1;align=center;verticalAlign=middle;resizable=0;points=[];labelBackgroundColor=#ffffff;" vertex="1" connectable="0" parent="JhHzv592Icp3fgC0ysYY-7">
          <mxGeometry x="0.1585" y="1" relative="1" as="geometry">
            <mxPoint as="offset"/>
          </mxGeometry>
        </mxCell>
        <mxCell id="JhHzv592Icp3fgC0ysYY-9" value="&lt;font style=&quot;font-size: 14px&quot;&gt;&lt;b&gt;科拓停车场设备&lt;/b&gt;&lt;/font&gt;" style="shape=ext;double=1;rounded=0;whiteSpace=wrap;html=1;" vertex="1" parent="1">
          <mxGeometry x="20" y="68" width="120" height="80" as="geometry"/>
        </mxCell>
        <mxCell id="JhHzv592Icp3fgC0ysYY-10" style="edgeStyle=orthogonalEdgeStyle;rounded=0;orthogonalLoop=1;jettySize=auto;html=1;" edge="1" parent="1" source="JhHzv592Icp3fgC0ysYY-12" target="JhHzv592Icp3fgC0ysYY-6">
          <mxGeometry relative="1" as="geometry"/>
        </mxCell>
        <mxCell id="JhHzv592Icp3fgC0ysYY-11" value="&lt;b&gt;&lt;font style=&quot;font-size: 14px&quot;&gt;设备控制&lt;/font&gt;&lt;/b&gt;" style="text;html=1;align=center;verticalAlign=middle;resizable=0;points=[];labelBackgroundColor=#ffffff;" vertex="1" connectable="0" parent="JhHzv592Icp3fgC0ysYY-10">
          <mxGeometry x="0.1314" y="6" relative="1" as="geometry">
            <mxPoint as="offset"/>
          </mxGeometry>
        </mxCell>
        <mxCell id="JhHzv592Icp3fgC0ysYY-12" value="&lt;font style=&quot;font-size: 14px&quot;&gt;&lt;b&gt;捷顺停车场设备&lt;/b&gt;&lt;/font&gt;" style="shape=ext;double=1;rounded=0;whiteSpace=wrap;html=1;" vertex="1" parent="1">
          <mxGeometry x="20" y="280" width="120" height="80" as="geometry"/>
        </mxCell>
        <mxCell id="JhHzv592Icp3fgC0ysYY-27" style="edgeStyle=orthogonalEdgeStyle;rounded=0;orthogonalLoop=1;jettySize=auto;html=1;" edge="1" parent="1" source="JhHzv592Icp3fgC0ysYY-13" target="JhHzv592Icp3fgC0ysYY-26">
          <mxGeometry relative="1" as="geometry"/>
        </mxCell>
        <mxCell id="JhHzv592Icp3fgC0ysYY-13" value="&lt;b&gt;&lt;font style=&quot;font-size: 14px&quot;&gt;科拓云&lt;/font&gt;&lt;/b&gt;" style="verticalLabelPosition=bottom;aspect=fixed;html=1;verticalAlign=top;strokeColor=none;align=center;outlineConnect=0;shape=mxgraph.citrix.cloud;" vertex="1" parent="1">
          <mxGeometry x="480" y="77" width="95" height="62" as="geometry"/>
        </mxCell>
        <mxCell id="JhHzv592Icp3fgC0ysYY-28" style="edgeStyle=orthogonalEdgeStyle;rounded=0;orthogonalLoop=1;jettySize=auto;html=1;" edge="1" parent="1" source="JhHzv592Icp3fgC0ysYY-14" target="JhHzv592Icp3fgC0ysYY-26">
          <mxGeometry relative="1" as="geometry"/>
        </mxCell>
        <mxCell id="JhHzv592Icp3fgC0ysYY-14" value="&lt;font style=&quot;font-size: 14px&quot;&gt;&lt;b&gt;捷顺云&lt;/b&gt;&lt;/font&gt;" style="verticalLabelPosition=bottom;aspect=fixed;html=1;verticalAlign=top;strokeColor=none;align=center;outlineConnect=0;shape=mxgraph.citrix.cloud;" vertex="1" parent="1">
          <mxGeometry x="470" y="289" width="95" height="62" as="geometry"/>
        </mxCell>
        <mxCell id="JhHzv592Icp3fgC0ysYY-26" value="&lt;font style=&quot;font-size: 14px&quot;&gt;私有云&lt;/font&gt;" style="verticalLabelPosition=bottom;aspect=fixed;html=1;verticalAlign=top;strokeColor=none;align=center;outlineConnect=0;shape=mxgraph.citrix.cloud;" vertex="1" parent="1">
          <mxGeometry x="600" y="180" width="95" height="62" as="geometry"/>
        </mxCell>
        <mxCell id="JhHzv592Icp3fgC0ysYY-31" style="edgeStyle=orthogonalEdgeStyle;rounded=0;orthogonalLoop=1;jettySize=auto;html=1;" edge="1" parent="1" source="JhHzv592Icp3fgC0ysYY-30">
          <mxGeometry relative="1" as="geometry">
            <mxPoint x="700" y="212" as="targetPoint"/>
          </mxGeometry>
        </mxCell>
        <mxCell id="JhHzv592Icp3fgC0ysYY-32" value="&lt;b&gt;&lt;font style=&quot;font-size: 14px&quot;&gt;查看数据&lt;/font&gt;&lt;/b&gt;" style="text;html=1;align=center;verticalAlign=middle;resizable=0;points=[];labelBackgroundColor=#ffffff;" vertex="1" connectable="0" parent="JhHzv592Icp3fgC0ysYY-31">
          <mxGeometry x="0.2889" y="1" relative="1" as="geometry">
            <mxPoint as="offset"/>
          </mxGeometry>
        </mxCell>
        <mxCell id="JhHzv592Icp3fgC0ysYY-30" value="" style="shape=actor;whiteSpace=wrap;html=1;" vertex="1" parent="1">
          <mxGeometry x="730" y="40" width="40" height="60" as="geometry"/>
        </mxCell>
      </root>
    </mxGraphModel>
  </diagram>
</mxfile>
